<svg width="15px" height="15px" viewBox="0 0 223 274" fill="none" xmlns="http://www.w3.org/2000/svg">
<path d="M205.252 158.332C198.873 115.521 170.618 90.0182 128.377 89.0058C116.753 88.7647 105.224 89.0058 91.8529 89.0058C96.9558 58.1513 101.681 29.8519 106.595 0.106261C90.4827 0.106261 75.7408 0.829413 60.999 0.106261C49.1394 -0.761522 45.5957 3.6256 43.6112 15.4853C29.8144 99.2745 15.2616 182.871 0 269.842C37.0435 271.24 72.0554 273.072 107.209 273.795C125.362 274.38 143.329 269.914 159.183 260.875C155.067 254.901 152.841 247.785 152.805 240.482C152.531 234.177 153.777 227.9 156.435 222.202C159.092 216.503 163.08 211.557 168.047 207.797C173.015 204.037 178.811 201.579 184.927 200.637C191.043 199.695 197.291 200.299 203.125 202.396C206.824 188.018 207.548 173.011 205.252 158.332ZM107.681 219.173C103.195 219.09 98.7713 218.083 94.6758 216.212C90.5804 214.342 86.8975 211.646 83.8483 208.287C80.7991 204.928 78.4464 200.975 76.9314 196.666C75.4164 192.356 74.7704 187.779 75.0321 183.208C74.8928 173.02 78.7104 163.19 85.6511 155.864C92.5918 148.539 102.092 144.313 112.076 144.11C116.432 143.964 120.77 144.742 124.816 146.394C128.862 148.047 132.529 150.537 135.584 153.709C138.639 156.88 141.016 160.664 142.565 164.82C144.114 168.977 144.801 173.416 144.583 177.857C144.772 200.371 127.951 219.173 107.681 219.173Z" fill="#F8F7FF"/>
<path d="M222.498 233.155C222.734 256.73 207.047 273.941 185.596 273.603C180.509 273.756 175.461 272.662 170.874 270.414C166.286 268.166 162.294 264.829 159.231 260.683C170.037 254.458 179.5 246.069 187.051 236.02C194.602 225.971 200.086 214.469 203.173 202.204C215.08 206.688 222.403 217.776 222.498 233.155Z" fill="#44D1A8"/>
</svg>
