<svg width="465" height="92" viewBox="0 0 465 92" fill="none" xmlns="http://www.w3.org/2000/svg">
<rect x="1" y="1.0708" width="463" height="89.2924" rx="31" fill="#F9F9FF"/>
<path d="M66.1076 32.1988C65.2302 32.1988 64.5769 32.0635 64.1476 31.7928C63.7276 31.5221 63.5176 31.0228 63.5176 30.2948C63.5176 29.9588 63.5269 29.6508 63.5456 29.3708C63.5642 29.0908 63.5829 28.8155 63.6016 28.5448C63.6296 28.2741 63.6436 27.9848 63.6436 27.6768C63.6436 27.4995 63.5876 27.3315 63.4756 27.1728C63.3729 27.0048 63.1769 26.8695 62.8876 26.7668C62.5982 26.6641 62.1829 26.6081 61.6416 26.5988V25.7588C62.1829 25.7495 62.5982 25.6935 62.8876 25.5908C63.1769 25.4881 63.3729 25.3528 63.4756 25.1848C63.5876 25.0168 63.6436 24.8488 63.6436 24.6808C63.6436 24.3821 63.6296 24.0975 63.6016 23.8268C63.5829 23.5468 63.5642 23.2621 63.5456 22.9728C63.5269 22.6835 63.5176 22.3801 63.5176 22.0628C63.5176 21.3255 63.7276 20.8261 64.1476 20.5648C64.5769 20.2941 65.2302 20.1588 66.1076 20.1588H67.0176V20.9288H66.3316C65.8836 20.9288 65.5382 20.9708 65.2956 21.0548C65.0622 21.1295 64.8989 21.2555 64.8056 21.4328C64.7216 21.6008 64.6796 21.8341 64.6796 22.1328C64.6796 22.5248 64.6936 22.9261 64.7216 23.3368C64.7496 23.7475 64.7636 24.1675 64.7636 24.5968C64.7636 25.0635 64.6656 25.4181 64.4696 25.6608C64.2829 25.9035 63.9422 26.0668 63.4476 26.1508V26.2068C63.9422 26.2908 64.2829 26.4541 64.4696 26.6968C64.6656 26.9395 64.7636 27.2941 64.7636 27.7608C64.7636 28.2181 64.7496 28.6428 64.7216 29.0348C64.6936 29.4175 64.6796 29.8141 64.6796 30.2248C64.6796 30.5141 64.7216 30.7475 64.8056 30.9248C64.8989 31.1021 65.0622 31.2281 65.2956 31.3028C65.5382 31.3868 65.8836 31.4288 66.3316 31.4288H67.0176V32.1988H66.1076ZM81.0906 30.0708V24.3448H78.0246V23.2248H82.4766V30.0708H81.0906ZM81.6646 21.8948C81.366 21.8948 81.1186 21.8061 80.9226 21.6288C80.7266 21.4421 80.6286 21.1995 80.6286 20.9008C80.6286 20.6021 80.7266 20.3641 80.9226 20.1868C81.1186 20.0001 81.366 19.9068 81.6646 19.9068C81.9633 19.9068 82.2106 20.0001 82.4066 20.1868C82.6026 20.3641 82.7006 20.6021 82.7006 20.9008C82.7006 21.1995 82.6026 21.4421 82.4066 21.6288C82.2106 21.8061 81.9633 21.8948 81.6646 21.8948ZM88.9392 30.2388C88.0525 30.2388 87.3385 29.9261 86.7972 29.3008C86.2558 28.6661 85.9852 27.7841 85.9852 26.6548C85.9852 25.9175 86.1298 25.2828 86.4192 24.7508C86.7178 24.2095 87.1005 23.7941 87.5672 23.5048C88.0338 23.2061 88.5285 23.0568 89.0512 23.0568C89.4525 23.0568 89.8118 23.1315 90.1292 23.2808C90.4465 23.4301 90.7405 23.6401 91.0112 23.9108H91.0532L90.9832 22.6928V20.1448H92.3692V30.0708H91.2352L91.1232 29.2308H91.0812C90.8105 29.5015 90.4885 29.7395 90.1152 29.9448C89.7418 30.1408 89.3498 30.2388 88.9392 30.2388ZM89.2612 29.0908C89.5692 29.0908 89.8632 29.0161 90.1432 28.8668C90.4325 28.7081 90.7125 28.4748 90.9832 28.1668V24.9188C90.7125 24.6668 90.4418 24.4895 90.1712 24.3868C89.9005 24.2748 89.6298 24.2188 89.3592 24.2188C89.0045 24.2188 88.6778 24.3168 88.3792 24.5128C88.0898 24.7088 87.8565 24.9888 87.6792 25.3528C87.5018 25.7168 87.4132 26.1461 87.4132 26.6408C87.4132 27.4248 87.5765 28.0315 87.9032 28.4608C88.2298 28.8808 88.6825 29.0908 89.2612 29.0908ZM97.7957 25.3528C97.441 25.3528 97.1424 25.2315 96.8997 24.9888C96.657 24.7461 96.5357 24.4335 96.5357 24.0508C96.5357 23.6681 96.657 23.3555 96.8997 23.1128C97.1424 22.8701 97.441 22.7488 97.7957 22.7488C98.1597 22.7488 98.4584 22.8701 98.6917 23.1128C98.9344 23.3555 99.0557 23.6681 99.0557 24.0508C99.0557 24.4335 98.9344 24.7461 98.6917 24.9888C98.4584 25.2315 98.1597 25.3528 97.7957 25.3528ZM97.7957 30.2388C97.441 30.2388 97.1424 30.1175 96.8997 29.8748C96.657 29.6321 96.5357 29.3195 96.5357 28.9368C96.5357 28.5541 96.657 28.2415 96.8997 27.9988C97.1424 27.7561 97.441 27.6348 97.7957 27.6348C98.1597 27.6348 98.4584 27.7561 98.6917 27.9988C98.9344 28.2415 99.0557 28.5541 99.0557 28.9368C99.0557 29.3195 98.9344 29.6321 98.6917 29.8748C98.4584 30.1175 98.1597 30.2388 97.7957 30.2388ZM111.687 30.0708V28.9368H114.207V22.7208H112.219V21.8528C112.583 21.7968 112.9 21.7361 113.171 21.6708C113.451 21.6055 113.703 21.5308 113.927 21.4468C114.16 21.3628 114.375 21.2648 114.571 21.1528H115.593V28.9368H117.847V30.0708H111.687ZM121.859 33.0668L121.481 32.2128C122.088 31.9608 122.536 31.6435 122.825 31.2608C123.124 30.8781 123.269 30.4161 123.259 29.8748L123.035 28.4888L123.847 29.6788C123.726 29.8001 123.595 29.8841 123.455 29.9308C123.315 29.9775 123.175 30.0008 123.035 30.0008C122.811 30.0008 122.606 29.9588 122.419 29.8748C122.242 29.7815 122.097 29.6508 121.985 29.4828C121.883 29.3055 121.831 29.0955 121.831 28.8528C121.831 28.4795 121.953 28.1948 122.195 27.9988C122.438 27.7935 122.727 27.6908 123.063 27.6908C123.511 27.6908 123.852 27.8635 124.085 28.2088C124.319 28.5541 124.435 29.0301 124.435 29.6368C124.435 30.4768 124.207 31.1861 123.749 31.7648C123.301 32.3435 122.671 32.7775 121.859 33.0668ZM136.8 30.0708V23.2248H137.934L138.046 24.3308H138.102C138.448 23.9761 138.821 23.6775 139.222 23.4348C139.624 23.1828 140.09 23.0568 140.622 23.0568C141.416 23.0568 141.999 23.2995 142.372 23.7848C142.755 24.2608 142.946 24.9421 142.946 25.8288V30.0708H141.56V26.0108C141.56 25.4135 141.448 24.9748 141.224 24.6948C141.01 24.4055 140.646 24.2608 140.132 24.2608C139.768 24.2608 139.442 24.3541 139.152 24.5408C138.863 24.7181 138.541 24.9888 138.186 25.3528V30.0708H136.8ZM147.337 30.2388C146.898 30.2388 146.502 30.1595 146.147 30.0008C145.802 29.8328 145.526 29.6041 145.321 29.3148C145.125 29.0161 145.027 28.6661 145.027 28.2648C145.027 27.4995 145.4 26.9161 146.147 26.5148C146.903 26.1135 148.14 25.8475 149.857 25.7168C149.848 25.4368 149.782 25.1801 149.661 24.9468C149.549 24.7135 149.367 24.5315 149.115 24.4008C148.872 24.2608 148.55 24.1908 148.149 24.1908C147.869 24.1908 147.594 24.2281 147.323 24.3028C147.052 24.3681 146.791 24.4615 146.539 24.5828C146.287 24.7041 146.049 24.8301 145.825 24.9608L145.307 24.0228C145.559 23.8735 145.848 23.7241 146.175 23.5748C146.502 23.4161 146.852 23.2901 147.225 23.1968C147.608 23.1035 147.995 23.0568 148.387 23.0568C149.022 23.0568 149.549 23.1735 149.969 23.4068C150.389 23.6401 150.706 23.9715 150.921 24.4008C151.136 24.8301 151.243 25.3481 151.243 25.9548V30.0708H150.109L149.997 29.1888H149.955C149.591 29.4688 149.18 29.7161 148.723 29.9308C148.266 30.1361 147.804 30.2388 147.337 30.2388ZM147.729 29.1328C148.093 29.1328 148.452 29.0535 148.807 28.8948C149.162 28.7361 149.512 28.5121 149.857 28.2228V26.5988C148.961 26.6641 148.256 26.7668 147.743 26.9068C147.239 27.0468 146.884 27.2241 146.679 27.4388C146.474 27.6441 146.371 27.8868 146.371 28.1668C146.371 28.3908 146.432 28.5775 146.553 28.7268C146.684 28.8668 146.852 28.9695 147.057 29.0348C147.262 29.1001 147.486 29.1328 147.729 29.1328ZM153.085 30.0708V23.2248H154.177L154.289 24.1208H154.317C154.485 23.8128 154.686 23.5608 154.919 23.3648C155.153 23.1595 155.465 23.0568 155.857 23.0568C156.184 23.0568 156.455 23.1548 156.669 23.3508C156.884 23.5468 157.033 23.8408 157.117 24.2328C157.304 23.8781 157.514 23.5935 157.747 23.3788C157.99 23.1641 158.307 23.0568 158.699 23.0568C159.185 23.0568 159.558 23.2435 159.819 23.6168C160.09 23.9901 160.225 24.5175 160.225 25.1988V30.0708H158.867V25.2968C158.867 24.5968 158.657 24.2468 158.237 24.2468C158.032 24.2468 157.859 24.3261 157.719 24.4848C157.579 24.6435 157.425 24.8815 157.257 25.1988V30.0708H156.053V25.2968C156.053 24.9515 156.002 24.6901 155.899 24.5128C155.806 24.3355 155.652 24.2468 155.437 24.2468C155.232 24.2468 155.05 24.3261 154.891 24.4848C154.742 24.6435 154.593 24.8815 154.443 25.1988V30.0708H153.085ZM165.372 30.2388C164.681 30.2388 164.051 30.0988 163.482 29.8188C162.922 29.5388 162.479 29.1281 162.152 28.5868C161.825 28.0455 161.662 27.3968 161.662 26.6408C161.662 25.8941 161.825 25.2548 162.152 24.7228C162.488 24.1908 162.922 23.7801 163.454 23.4908C163.986 23.2015 164.555 23.0568 165.162 23.0568C165.834 23.0568 166.403 23.1968 166.87 23.4768C167.337 23.7475 167.691 24.1255 167.934 24.6108C168.186 25.0868 168.312 25.6468 168.312 26.2908C168.312 26.4308 168.307 26.5708 168.298 26.7108C168.289 26.8415 168.275 26.9535 168.256 27.0468H162.628V26.0248H167.388L167.08 26.3608C167.08 25.6235 166.912 25.0728 166.576 24.7088C166.24 24.3355 165.783 24.1488 165.204 24.1488C164.803 24.1488 164.434 24.2468 164.098 24.4428C163.771 24.6295 163.51 24.9095 163.314 25.2828C163.118 25.6468 163.02 26.0995 163.02 26.6408C163.02 27.2008 163.127 27.6675 163.342 28.0408C163.566 28.4048 163.865 28.6801 164.238 28.8668C164.621 29.0535 165.059 29.1468 165.554 29.1468C165.937 29.1468 166.287 29.0955 166.604 28.9928C166.921 28.8808 167.234 28.7315 167.542 28.5448L168.032 29.4268C167.687 29.6601 167.29 29.8561 166.842 30.0148C166.394 30.1641 165.904 30.2388 165.372 30.2388ZM173.346 25.3528C172.992 25.3528 172.693 25.2315 172.45 24.9888C172.208 24.7461 172.086 24.4335 172.086 24.0508C172.086 23.6681 172.208 23.3555 172.45 23.1128C172.693 22.8701 172.992 22.7488 173.346 22.7488C173.71 22.7488 174.009 22.8701 174.242 23.1128C174.485 23.3555 174.606 23.6681 174.606 24.0508C174.606 24.4335 174.485 24.7461 174.242 24.9888C174.009 25.2315 173.71 25.3528 173.346 25.3528ZM173.346 30.2388C172.992 30.2388 172.693 30.1175 172.45 29.8748C172.208 29.6321 172.086 29.3195 172.086 28.9368C172.086 28.5541 172.208 28.2415 172.45 27.9988C172.693 27.7561 172.992 27.6348 173.346 27.6348C173.71 27.6348 174.009 27.7561 174.242 27.9988C174.485 28.2415 174.606 28.5541 174.606 28.9368C174.606 29.3195 174.485 29.6321 174.242 29.8748C174.009 30.1175 173.71 30.2388 173.346 30.2388ZM189.688 25.3108L189.296 22.1188L189.254 20.4668H191.018L190.976 22.1188L190.584 25.3108H189.688ZM198.18 30.2388C197.676 30.2388 197.167 30.1221 196.654 29.8888C196.141 29.6461 195.716 29.2541 195.38 28.7128L196.234 27.8588C196.495 28.2415 196.794 28.5308 197.13 28.7268C197.466 28.9228 197.802 29.0208 198.138 29.0208C198.745 29.0208 199.193 28.8621 199.482 28.5448C199.771 28.2181 199.916 27.6955 199.916 26.9768V22.0628H196.15V20.8868H201.316V27.0888C201.316 27.6675 201.218 28.1948 201.022 28.6708C200.826 29.1468 200.499 29.5295 200.042 29.8188C199.585 30.0988 198.964 30.2388 198.18 30.2388ZM206.925 30.2388C206.327 30.2388 205.767 30.0988 205.245 29.8188C204.731 29.5388 204.311 29.1328 203.985 28.6008C203.667 28.0595 203.509 27.4108 203.509 26.6548C203.509 25.8988 203.667 25.2548 203.985 24.7228C204.311 24.1815 204.731 23.7708 205.245 23.4908C205.767 23.2015 206.327 23.0568 206.925 23.0568C207.522 23.0568 208.077 23.2015 208.591 23.4908C209.113 23.7708 209.533 24.1815 209.851 24.7228C210.177 25.2548 210.341 25.8988 210.341 26.6548C210.341 27.4108 210.177 28.0595 209.851 28.6008C209.533 29.1328 209.113 29.5388 208.591 29.8188C208.077 30.0988 207.522 30.2388 206.925 30.2388ZM206.925 29.1048C207.326 29.1048 207.676 29.0021 207.975 28.7968C208.273 28.5915 208.502 28.3068 208.661 27.9428C208.829 27.5788 208.913 27.1495 208.913 26.6548C208.913 26.1695 208.829 25.7448 208.661 25.3808C208.502 25.0075 208.273 24.7181 207.975 24.5128C207.676 24.3075 207.326 24.2048 206.925 24.2048C206.523 24.2048 206.173 24.3075 205.875 24.5128C205.576 24.7181 205.343 25.0075 205.175 25.3808C205.016 25.7448 204.937 26.1695 204.937 26.6548C204.937 27.1495 205.016 27.5788 205.175 27.9428C205.343 28.3068 205.576 28.5915 205.875 28.7968C206.173 29.0021 206.523 29.1048 206.925 29.1048ZM212.351 30.0708V20.1448H213.737V22.7768L213.653 24.3168H213.695C214.022 23.9715 214.386 23.6775 214.787 23.4348C215.188 23.1828 215.65 23.0568 216.173 23.0568C216.976 23.0568 217.564 23.2995 217.937 23.7848C218.31 24.2608 218.497 24.9421 218.497 25.8288V30.0708H217.111V26.0108C217.111 25.4135 216.999 24.9748 216.775 24.6948C216.56 24.4055 216.196 24.2608 215.683 24.2608C215.319 24.2608 214.992 24.3541 214.703 24.5408C214.414 24.7181 214.092 24.9888 213.737 25.3528V30.0708H212.351ZM220.746 30.0708V23.2248H221.88L221.992 24.3308H222.048C222.393 23.9761 222.766 23.6775 223.168 23.4348C223.569 23.1828 224.036 23.0568 224.568 23.0568C225.361 23.0568 225.944 23.2995 226.318 23.7848C226.7 24.2608 226.892 24.9421 226.892 25.8288V30.0708H225.506V26.0108C225.506 25.4135 225.394 24.9748 225.17 24.6948C224.955 24.4055 224.591 24.2608 224.078 24.2608C223.714 24.2608 223.387 24.3541 223.098 24.5408C222.808 24.7181 222.486 24.9888 222.132 25.3528V30.0708H220.746ZM237.465 30.0708V20.9008H239.789C240.703 20.9008 241.478 21.0735 242.113 21.4188C242.757 21.7641 243.247 22.2775 243.583 22.9588C243.919 23.6308 244.087 24.4615 244.087 25.4508C244.087 26.4401 243.919 27.2801 243.583 27.9708C243.247 28.6615 242.766 29.1841 242.141 29.5388C241.515 29.8935 240.755 30.0708 239.859 30.0708H237.465ZM238.865 28.9368H239.705C240.349 28.9368 240.885 28.8061 241.315 28.5448C241.753 28.2741 242.085 27.8821 242.309 27.3688C242.533 26.8555 242.645 26.2161 242.645 25.4508C242.645 24.6855 242.533 24.0508 242.309 23.5468C242.085 23.0428 241.753 22.6648 241.315 22.4128C240.885 22.1608 240.349 22.0348 239.705 22.0348H238.865V28.9368ZM248.897 30.2388C248.3 30.2388 247.74 30.0988 247.217 29.8188C246.704 29.5388 246.284 29.1328 245.957 28.6008C245.64 28.0595 245.481 27.4108 245.481 26.6548C245.481 25.8988 245.64 25.2548 245.957 24.7228C246.284 24.1815 246.704 23.7708 247.217 23.4908C247.74 23.2015 248.3 23.0568 248.897 23.0568C249.495 23.0568 250.05 23.2015 250.563 23.4908C251.086 23.7708 251.506 24.1815 251.823 24.7228C252.15 25.2548 252.313 25.8988 252.313 26.6548C252.313 27.4108 252.15 28.0595 251.823 28.6008C251.506 29.1328 251.086 29.5388 250.563 29.8188C250.05 30.0988 249.495 30.2388 248.897 30.2388ZM248.897 29.1048C249.299 29.1048 249.649 29.0021 249.947 28.7968C250.246 28.5915 250.475 28.3068 250.633 27.9428C250.801 27.5788 250.885 27.1495 250.885 26.6548C250.885 26.1695 250.801 25.7448 250.633 25.3808C250.475 25.0075 250.246 24.7181 249.947 24.5128C249.649 24.3075 249.299 24.2048 248.897 24.2048C248.496 24.2048 248.146 24.3075 247.847 24.5128C247.549 24.7181 247.315 25.0075 247.147 25.3808C246.989 25.7448 246.909 26.1695 246.909 26.6548C246.909 27.1495 246.989 27.5788 247.147 27.9428C247.315 28.3068 247.549 28.5915 247.847 28.7968C248.146 29.0021 248.496 29.1048 248.897 29.1048ZM257.712 30.2388C257.021 30.2388 256.391 30.0988 255.822 29.8188C255.262 29.5388 254.818 29.1281 254.492 28.5868C254.165 28.0455 254.002 27.3968 254.002 26.6408C254.002 25.8941 254.165 25.2548 254.492 24.7228C254.828 24.1908 255.262 23.7801 255.794 23.4908C256.326 23.2015 256.895 23.0568 257.502 23.0568C258.174 23.0568 258.743 23.1968 259.21 23.4768C259.676 23.7475 260.031 24.1255 260.274 24.6108C260.526 25.0868 260.652 25.6468 260.652 26.2908C260.652 26.4308 260.647 26.5708 260.638 26.7108C260.628 26.8415 260.614 26.9535 260.596 27.0468H254.968V26.0248H259.728L259.42 26.3608C259.42 25.6235 259.252 25.0728 258.916 24.7088C258.58 24.3355 258.122 24.1488 257.544 24.1488C257.142 24.1488 256.774 24.2468 256.438 24.4428C256.111 24.6295 255.85 24.9095 255.654 25.2828C255.458 25.6468 255.36 26.0995 255.36 26.6408C255.36 27.2008 255.467 27.6675 255.682 28.0408C255.906 28.4048 256.204 28.6801 256.578 28.8668C256.96 29.0535 257.399 29.1468 257.894 29.1468C258.276 29.1468 258.626 29.0955 258.944 28.9928C259.261 28.8808 259.574 28.7315 259.882 28.5448L260.372 29.4268C260.026 29.6601 259.63 29.8561 259.182 30.0148C258.734 30.1641 258.244 30.2388 257.712 30.2388ZM265.238 25.3108L264.846 22.1188L264.804 20.4668H266.568L266.526 22.1188L266.134 25.3108H265.238ZM272.961 33.0668L272.583 32.2128C273.19 31.9608 273.638 31.6435 273.927 31.2608C274.226 30.8781 274.37 30.4161 274.361 29.8748L274.137 28.4888L274.949 29.6788C274.828 29.8001 274.697 29.8841 274.557 29.9308C274.417 29.9775 274.277 30.0008 274.137 30.0008C273.913 30.0008 273.708 29.9588 273.521 29.8748C273.344 29.7815 273.199 29.6508 273.087 29.4828C272.984 29.3055 272.933 29.0955 272.933 28.8528C272.933 28.4795 273.054 28.1948 273.297 27.9988C273.54 27.7935 273.829 27.6908 274.165 27.6908C274.613 27.6908 274.954 27.8635 275.187 28.2088C275.42 28.5541 275.537 29.0301 275.537 29.6368C275.537 30.4768 275.308 31.1861 274.851 31.7648C274.403 32.3435 273.773 32.7775 272.961 33.0668ZM290.954 30.2388C290.31 30.2388 289.694 30.1315 289.106 29.9168C288.518 29.7021 288.019 29.4548 287.608 29.1748L288.224 28.2788C288.625 28.5588 289.059 28.7781 289.526 28.9368C290.002 29.0955 290.539 29.1748 291.136 29.1748C291.659 29.1748 292.046 29.0815 292.298 28.8948C292.559 28.7081 292.69 28.4888 292.69 28.2368C292.69 28.1155 292.662 28.0035 292.606 27.9008C292.559 27.7981 292.466 27.7048 292.326 27.6208C292.195 27.5275 291.995 27.4388 291.724 27.3548C291.463 27.2708 291.117 27.1821 290.688 27.0888C289.783 26.9021 289.111 26.6455 288.672 26.3188C288.243 25.9921 288.028 25.5721 288.028 25.0588C288.028 24.4801 288.275 24.0041 288.77 23.6308C289.274 23.2481 290.002 23.0568 290.954 23.0568C291.495 23.0568 292.009 23.1501 292.494 23.3368C292.989 23.5141 293.409 23.7195 293.754 23.9528L293.11 24.8208C292.783 24.6061 292.424 24.4381 292.032 24.3168C291.649 24.1861 291.248 24.1208 290.828 24.1208C290.483 24.1208 290.207 24.1628 290.002 24.2468C289.797 24.3215 289.647 24.4241 289.554 24.5548C289.461 24.6855 289.414 24.8301 289.414 24.9888C289.414 25.2501 289.559 25.4555 289.848 25.6048C290.147 25.7448 290.627 25.8848 291.29 26.0248C292.037 26.1835 292.611 26.3608 293.012 26.5568C293.423 26.7528 293.703 26.9815 293.852 27.2428C294.011 27.4948 294.09 27.7981 294.09 28.1528C294.09 28.5355 293.969 28.8855 293.726 29.2028C293.483 29.5201 293.129 29.7721 292.662 29.9588C292.205 30.1455 291.635 30.2388 290.954 30.2388ZM300.566 30.2388C299.876 30.2388 299.33 30.1175 298.928 29.8748C298.536 29.6321 298.256 29.2961 298.088 28.8668C297.92 28.4375 297.836 27.9381 297.836 27.3688V24.3448H295.96V23.3088L297.892 23.2248L298.074 21.0688H299.222V23.2248H302.456V24.3448H299.222V27.3688C299.222 27.7515 299.274 28.0781 299.376 28.3488C299.479 28.6101 299.652 28.8061 299.894 28.9368C300.137 29.0581 300.464 29.1188 300.874 29.1188C301.182 29.1188 301.462 29.0955 301.714 29.0488C301.966 28.9928 302.209 28.9228 302.442 28.8388L302.722 29.8468C302.414 29.9495 302.083 30.0381 301.728 30.1128C301.383 30.1968 300.996 30.2388 300.566 30.2388ZM306.833 30.2388C306.394 30.2388 305.998 30.1595 305.643 30.0008C305.298 29.8328 305.022 29.6041 304.817 29.3148C304.621 29.0161 304.523 28.6661 304.523 28.2648C304.523 27.4995 304.896 26.9161 305.643 26.5148C306.399 26.1135 307.636 25.8475 309.353 25.7168C309.344 25.4368 309.278 25.1801 309.157 24.9468C309.045 24.7135 308.863 24.5315 308.611 24.4008C308.368 24.2608 308.046 24.1908 307.645 24.1908C307.365 24.1908 307.09 24.2281 306.819 24.3028C306.548 24.3681 306.287 24.4615 306.035 24.5828C305.783 24.7041 305.545 24.8301 305.321 24.9608L304.803 24.0228C305.055 23.8735 305.344 23.7241 305.671 23.5748C305.998 23.4161 306.348 23.2901 306.721 23.1968C307.104 23.1035 307.491 23.0568 307.883 23.0568C308.518 23.0568 309.045 23.1735 309.465 23.4068C309.885 23.6401 310.202 23.9715 310.417 24.4008C310.632 24.8301 310.739 25.3481 310.739 25.9548V30.0708H309.605L309.493 29.1888H309.451C309.087 29.4688 308.676 29.7161 308.219 29.9308C307.762 30.1361 307.3 30.2388 306.833 30.2388ZM307.225 29.1328C307.589 29.1328 307.948 29.0535 308.303 28.8948C308.658 28.7361 309.008 28.5121 309.353 28.2228V26.5988C308.457 26.6641 307.752 26.7668 307.239 26.9068C306.735 27.0468 306.38 27.2241 306.175 27.4388C305.97 27.6441 305.867 27.8868 305.867 28.1668C305.867 28.3908 305.928 28.5775 306.049 28.7268C306.18 28.8668 306.348 28.9695 306.553 29.0348C306.758 29.1001 306.982 29.1328 307.225 29.1328ZM317.356 30.2388C316.665 30.2388 316.119 30.1175 315.718 29.8748C315.326 29.6321 315.046 29.2961 314.878 28.8668C314.71 28.4375 314.626 27.9381 314.626 27.3688V24.3448H312.75V23.3088L314.682 23.2248L314.864 21.0688H316.012V23.2248H319.246V24.3448H316.012V27.3688C316.012 27.7515 316.063 28.0781 316.166 28.3488C316.268 28.6101 316.441 28.8061 316.684 28.9368C316.926 29.0581 317.253 29.1188 317.664 29.1188C317.972 29.1188 318.252 29.0955 318.504 29.0488C318.756 28.9928 318.998 28.9228 319.232 28.8388L319.512 29.8468C319.204 29.9495 318.872 30.0381 318.518 30.1128C318.172 30.1968 317.785 30.2388 317.356 30.2388ZM324.868 30.2388C324.177 30.2388 323.547 30.0988 322.978 29.8188C322.418 29.5388 321.975 29.1281 321.648 28.5868C321.321 28.0455 321.158 27.3968 321.158 26.6408C321.158 25.8941 321.321 25.2548 321.648 24.7228C321.984 24.1908 322.418 23.7801 322.95 23.4908C323.482 23.2015 324.051 23.0568 324.658 23.0568C325.33 23.0568 325.899 23.1968 326.366 23.4768C326.833 23.7475 327.187 24.1255 327.43 24.6108C327.682 25.0868 327.808 25.6468 327.808 26.2908C327.808 26.4308 327.803 26.5708 327.794 26.7108C327.785 26.8415 327.771 26.9535 327.752 27.0468H322.124V26.0248H326.884L326.576 26.3608C326.576 25.6235 326.408 25.0728 326.072 24.7088C325.736 24.3355 325.279 24.1488 324.7 24.1488C324.299 24.1488 323.93 24.2468 323.594 24.4428C323.267 24.6295 323.006 24.9095 322.81 25.2828C322.614 25.6468 322.516 26.0995 322.516 26.6408C322.516 27.2008 322.623 27.6675 322.838 28.0408C323.062 28.4048 323.361 28.6801 323.734 28.8668C324.117 29.0535 324.555 29.1468 325.05 29.1468C325.433 29.1468 325.783 29.0955 326.1 28.9928C326.417 28.8808 326.73 28.7315 327.038 28.5448L327.528 29.4268C327.183 29.6601 326.786 29.8561 326.338 30.0148C325.89 30.1641 325.4 30.2388 324.868 30.2388ZM332.843 25.3528C332.488 25.3528 332.189 25.2315 331.947 24.9888C331.704 24.7461 331.583 24.4335 331.583 24.0508C331.583 23.6681 331.704 23.3555 331.947 23.1128C332.189 22.8701 332.488 22.7488 332.843 22.7488C333.207 22.7488 333.505 22.8701 333.739 23.1128C333.981 23.3555 334.103 23.6681 334.103 24.0508C334.103 24.4335 333.981 24.7461 333.739 24.9888C333.505 25.2315 333.207 25.3528 332.843 25.3528ZM332.843 30.2388C332.488 30.2388 332.189 30.1175 331.947 29.8748C331.704 29.6321 331.583 29.3195 331.583 28.9368C331.583 28.5541 331.704 28.2415 331.947 27.9988C332.189 27.7561 332.488 27.6348 332.843 27.6348C333.207 27.6348 333.505 27.7561 333.739 27.9988C333.981 28.2415 334.103 28.5541 334.103 28.9368C334.103 29.3195 333.981 29.6321 333.739 29.8748C333.505 30.1175 333.207 30.2388 332.843 30.2388ZM349.184 25.3108L348.792 22.1188L348.75 20.4668H350.514L350.472 22.1188L350.08 25.3108H349.184ZM358.656 30.2388C357.947 30.2388 357.308 30.0988 356.738 29.8188C356.169 29.5388 355.716 29.1328 355.38 28.6008C355.054 28.0595 354.89 27.4108 354.89 26.6548C354.89 25.8988 355.068 25.2548 355.422 24.7228C355.777 24.1815 356.244 23.7708 356.822 23.4908C357.41 23.2015 358.05 23.0568 358.74 23.0568C359.3 23.0568 359.79 23.1548 360.21 23.3508C360.63 23.5375 360.98 23.7661 361.26 24.0368L360.588 24.9188C360.308 24.6948 360.024 24.5221 359.734 24.4008C359.454 24.2701 359.146 24.2048 358.81 24.2048C358.325 24.2048 357.891 24.3075 357.508 24.5128C357.135 24.7181 356.841 25.0075 356.626 25.3808C356.421 25.7448 356.318 26.1695 356.318 26.6548C356.318 27.1495 356.421 27.5788 356.626 27.9428C356.832 28.3068 357.116 28.5915 357.48 28.7968C357.854 29.0021 358.283 29.1048 358.768 29.1048C359.179 29.1048 359.552 29.0255 359.888 28.8668C360.224 28.7081 360.528 28.5168 360.798 28.2928L361.4 29.1888C361.018 29.5248 360.588 29.7861 360.112 29.9728C359.646 30.1501 359.16 30.2388 358.656 30.2388ZM363.453 30.0708V20.1448H364.839V22.7768L364.755 24.3168H364.797C365.123 23.9715 365.487 23.6775 365.889 23.4348C366.29 23.1828 366.752 23.0568 367.275 23.0568C368.077 23.0568 368.665 23.2995 369.039 23.7848C369.412 24.2608 369.599 24.9421 369.599 25.8288V30.0708H368.213V26.0108C368.213 25.4135 368.101 24.9748 367.877 24.6948C367.662 24.4055 367.298 24.2608 366.785 24.2608C366.421 24.2608 366.094 24.3541 365.805 24.5408C365.515 24.7181 365.193 24.9888 364.839 25.3528V30.0708H363.453ZM373.975 30.2388C373.173 30.2388 372.58 30.0008 372.197 29.5248C371.824 29.0488 371.637 28.3628 371.637 27.4668V23.2248H373.023V27.2848C373.023 27.8915 373.131 28.3395 373.345 28.6288C373.569 28.9088 373.938 29.0488 374.451 29.0488C374.815 29.0488 375.142 28.9601 375.431 28.7828C375.721 28.6055 376.033 28.3161 376.369 27.9148V23.2248H377.755V30.0708H376.621L376.509 28.9368H376.453C376.117 29.3195 375.749 29.6321 375.347 29.8748C374.955 30.1175 374.498 30.2388 373.975 30.2388ZM380.942 30.0708V23.2248H382.09L382.202 24.8208H382.244C382.598 24.2608 383.032 23.8268 383.546 23.5188C384.059 23.2108 384.619 23.0568 385.226 23.0568C385.487 23.0568 385.725 23.0801 385.94 23.1268C386.154 23.1735 386.364 23.2435 386.57 23.3368L386.262 24.5268C386.028 24.4428 385.828 24.3868 385.66 24.3588C385.492 24.3215 385.277 24.3028 385.016 24.3028C384.521 24.3028 384.045 24.4428 383.588 24.7228C383.13 25.0028 382.71 25.4881 382.328 26.1788V30.0708H380.942ZM388.636 30.0708V23.2248H389.77L389.882 24.3308H389.938C390.284 23.9761 390.657 23.6775 391.058 23.4348C391.46 23.1828 391.926 23.0568 392.458 23.0568C393.252 23.0568 393.835 23.2995 394.208 23.7848C394.591 24.2608 394.782 24.9421 394.782 25.8288V30.0708H393.396V26.0108C393.396 25.4135 393.284 24.9748 393.06 24.6948C392.846 24.4055 392.482 24.2608 391.968 24.2608C391.604 24.2608 391.278 24.3541 390.988 24.5408C390.699 24.7181 390.377 24.9888 390.022 25.3528V30.0708H388.636ZM399.551 25.3108L399.159 22.1188L399.117 20.4668H400.881L400.839 22.1188L400.447 25.3108H399.551ZM413.988 32.1988V31.4288H414.674C415.131 31.4288 415.477 31.3868 415.71 31.3028C415.953 31.2281 416.116 31.1021 416.2 30.9248C416.293 30.7475 416.34 30.5141 416.34 30.2248C416.34 29.8141 416.326 29.4175 416.298 29.0348C416.27 28.6428 416.256 28.2181 416.256 27.7608C416.256 27.2941 416.349 26.9395 416.536 26.6968C416.732 26.4541 417.073 26.2908 417.558 26.2068V26.1508C417.073 26.0668 416.732 25.9035 416.536 25.6608C416.349 25.4181 416.256 25.0635 416.256 24.5968C416.256 24.1675 416.27 23.7475 416.298 23.3368C416.326 22.9261 416.34 22.5248 416.34 22.1328C416.34 21.8341 416.293 21.6008 416.2 21.4328C416.116 21.2555 415.953 21.1295 415.71 21.0548C415.477 20.9708 415.131 20.9288 414.674 20.9288H413.988V20.1588H414.898C415.785 20.1588 416.438 20.2941 416.858 20.5648C417.278 20.8261 417.488 21.3255 417.488 22.0628C417.488 22.3801 417.479 22.6835 417.46 22.9728C417.441 23.2621 417.418 23.5468 417.39 23.8268C417.371 24.0975 417.362 24.3821 417.362 24.6808C417.362 24.8488 417.413 25.0168 417.516 25.1848C417.628 25.3528 417.829 25.4881 418.118 25.5908C418.407 25.6935 418.823 25.7495 419.364 25.7588V26.5988C418.823 26.6081 418.407 26.6641 418.118 26.7668C417.829 26.8695 417.628 27.0048 417.516 27.1728C417.413 27.3315 417.362 27.4995 417.362 27.6768C417.362 27.9848 417.371 28.2741 417.39 28.5448C417.418 28.8155 417.441 29.0908 417.46 29.3708C417.479 29.6508 417.488 29.9588 417.488 30.2948C417.488 31.0228 417.278 31.5221 416.858 31.7928C416.438 32.0635 415.785 32.1988 414.898 32.1988H413.988Z" fill="#231E1E"/>
<rect x="60.5" y="50.0708" width="57" height="11.365" fill="#B5B5B5"/>
<path fill-rule="evenodd" clip-rule="evenodd" d="M116.5 61.0708H90.5H89.5H61.5H60.5V62.0708V66.5708V67.5708V72.0708V73.0708H61.5H116.5H117.5V72.0708V67.5708V66.5708V62.0708V61.0708H116.5ZM116.5 66.5708V62.0708H90.5V66.5708H116.5ZM89.5 66.5708V62.0708H61.5V66.5708H89.5ZM90.5 67.5708H116.5V72.0708H61.5V67.5708H89.5H90.5Z" fill="#B5B5B5"/>
<rect x="262.5" y="50.0708" width="57" height="11.365" fill="#B5B5B5"/>
<path fill-rule="evenodd" clip-rule="evenodd" d="M318.5 61.0708H292.5H291.5H263.5H262.5V62.0708V66.5708V67.5708V72.0708V73.0708H263.5H318.5H319.5V72.0708V67.5708V66.5708V62.0708V61.0708H318.5ZM318.5 66.5708V62.0708H292.5V66.5708H318.5ZM291.5 66.5708V62.0708H263.5V66.5708H291.5ZM292.5 67.5708H318.5V72.0708H263.5V67.5708H291.5H292.5Z" fill="#B5B5B5"/>
<rect x="363.5" y="50.0708" width="57" height="22" fill="#B5B5B5"/>
<rect x="161.5" y="50.0708" width="57" height="11.365" fill="#B5B5B5"/>
<path fill-rule="evenodd" clip-rule="evenodd" d="M217.5 61.0708H191.5H190.5H162.5H161.5V62.0708V66.5708V67.5708V72.0708V73.0708H162.5H217.5H218.5V72.0708V67.5708V66.5708V62.0708V61.0708H217.5ZM217.5 66.5708V62.0708H191.5V66.5708H217.5ZM190.5 66.5708V62.0708H162.5V66.5708H190.5ZM191.5 67.5708H217.5V72.0708H162.5V67.5708H190.5H191.5Z" fill="#B5B5B5"/>
<path fill-rule="evenodd" clip-rule="evenodd" d="M217.5 72.0708H191.5H190.5H162.5H161.5V73.0708V77.5708V78.5708V83.0708V84.0708H162.5H217.5H218.5V83.0708V78.5708V77.5708V73.0708V72.0708H217.5ZM217.5 77.5708V73.0708H191.5V77.5708H217.5ZM190.5 77.5708V73.0708H162.5V77.5708H190.5ZM191.5 78.5708H217.5V83.0708H162.5V78.5708H190.5H191.5Z" fill="#B5B5B5"/>
<rect x="1" y="1.0708" width="463" height="89.2924" rx="31" stroke="#B5B5B5" stroke-width="2"/>
</svg>
