<svg width="465" height="130" viewBox="0 0 465 130" fill="none" xmlns="http://www.w3.org/2000/svg">
<rect x="1" y="1.30762" width="463" height="127.179" rx="31" fill="#F9F9FF"/>
<g filter="url(#filter0_d_1648_9781)">
<path d="M170.5 29.1076C170.5 24.6272 170.5 22.387 171.372 20.6757C172.139 19.1704 173.363 17.9466 174.868 17.1796C176.579 16.3076 178.82 16.3076 183.3 16.3076H265.7C270.18 16.3076 272.421 16.3076 274.132 17.1796C275.637 17.9466 276.861 19.1704 277.628 20.6757C278.5 22.387 278.5 24.6272 278.5 29.1076V39.5076C278.5 43.988 278.5 46.2282 277.628 47.9395C276.861 49.4448 275.637 50.6687 274.132 51.4357C272.421 52.3076 270.18 52.3076 265.7 52.3076H183.3C178.82 52.3076 176.579 52.3076 174.868 51.4357C173.363 50.6687 172.139 49.4448 171.372 47.9395C170.5 46.2282 170.5 43.988 170.5 39.5076V29.1076Z" fill="url(#paint0_linear_1648_9781)"/>
<g clip-path="url(#clip0_1648_9781)">
<path d="M201 26.8076L192.75 35.0576" stroke="white" stroke-width="2" stroke-linecap="round" stroke-linejoin="round"/>
<path d="M195.75 41.8076L201 26.8076L186 32.0576L192.75 35.0576L195.75 41.8076Z" stroke="white" stroke-width="2" stroke-linecap="round" stroke-linejoin="round"/>
</g>
<path d="M220.1 31.1376C220.1 29.1876 218.99 27.8076 216.275 27.8076H211.85V38.3076H213.725V34.4826H216.275C218.99 34.4826 220.1 33.1026 220.1 31.1376ZM218.21 31.1376C218.21 32.3826 217.61 33.0576 216.185 33.0576H213.725V29.2326H216.185C217.61 29.2326 218.21 29.9076 218.21 31.1376ZM227.295 38.3076H228.645V30.8076H226.935V34.8576C226.935 36.5076 226.425 37.1976 225.195 37.1976C223.605 37.1976 223.59 35.7126 223.59 34.5126V30.8076H221.88V34.8576C221.88 37.3776 222.69 38.4576 224.58 38.4576C225.915 38.4576 226.68 37.8576 226.98 36.5226L227.28 38.3076H227.295ZM235.336 30.6576C233.941 30.6576 233.116 31.2576 232.756 32.5926V27.8076H231.046V38.3076H232.396L232.711 36.4026C233.056 37.8126 233.896 38.4426 235.336 38.4426C237.481 38.4426 238.396 37.2726 238.396 34.5426C238.396 31.8126 237.481 30.6426 235.336 30.6426V30.6576ZM234.721 37.1826C233.341 37.1826 232.756 36.3876 232.756 34.5426C232.756 32.6976 233.341 31.9026 234.721 31.9026C236.101 31.9026 236.686 32.6976 236.686 34.5426C236.686 36.3876 236.101 37.1826 234.721 37.1826ZM240.341 38.3076H242.036V27.8076H240.341V38.3076ZM246.355 38.3076V30.8076H244.645V38.3076H246.355ZM245.5 27.5826C244.75 27.5826 244.435 27.8826 244.435 28.5876C244.435 29.2926 244.75 29.6076 245.485 29.6076C246.235 29.6076 246.565 29.2926 246.565 28.5876C246.565 27.8976 246.235 27.5826 245.5 27.5826ZM250.198 32.7126C250.198 31.9926 250.618 31.7076 251.653 31.7076C252.688 31.7076 253.108 32.0526 253.108 32.9076H254.638C254.638 31.3326 253.738 30.6576 251.653 30.6576C249.493 30.6576 248.578 31.3326 248.578 32.8926C248.578 35.8326 253.168 34.4076 253.168 36.2676C253.168 37.0776 252.733 37.4076 251.653 37.4076C250.573 37.4076 250.123 37.0176 250.123 36.0576H248.518C248.518 37.7376 249.433 38.4576 251.593 38.4576C253.888 38.4576 254.878 37.7376 254.878 36.0726C254.878 33.0726 250.198 34.4076 250.198 32.7126ZM258.537 34.2576C258.537 32.6076 259.032 31.9326 260.262 31.9326C261.402 31.9326 261.867 32.6076 261.867 34.2576V38.3076H263.577V34.2576C263.577 31.7376 262.767 30.6576 260.877 30.6576C259.617 30.6576 258.867 31.1976 258.537 32.3976V27.8076H256.827V38.3076H258.537V34.2576Z" fill="#F9F9FF"/>
</g>
<path d="M73 94.5465L51 81.7511M40.66 88.5309L62 100.981L83.34 88.5309M62 125.808V100.956M84 110.818V91.0949C83.9991 90.2302 83.7728 89.381 83.3438 88.6324C82.9147 87.8838 82.298 87.2621 81.5556 86.8298L64.4444 76.9682C63.7012 76.5355 62.8582 76.3076 62 76.3076C61.1418 76.3076 60.2988 76.5355 59.5556 76.9682L42.4444 86.8298C41.702 87.2621 41.0853 87.8838 40.6562 88.6324C40.2272 89.381 40.0009 90.2302 40 91.0949V110.818C40.0009 111.683 40.2272 112.532 40.6562 113.281C41.0853 114.029 41.702 114.651 42.4444 115.083L59.5556 124.945C60.2988 125.377 61.1418 125.605 62 125.605C62.8582 125.605 63.7012 125.377 64.4444 124.945L81.5556 115.083C82.298 114.651 82.9147 114.029 83.3438 113.281C83.7728 112.532 83.9991 111.683 84 110.818Z" stroke="#797979" stroke-width="2.8" stroke-linecap="round" stroke-linejoin="round"/>
<path d="M94.5 98.9041C102 98.9041 113.41 85.3076 131.37 85.3076C153.821 85.3076 170.258 110.308 194.545 110.308C218.832 110.308 229.252 90.1322 247.8 90.1322C263.117 90.1322 263.985 104.606 286.958 104.606C309.93 104.606 314.08 94.9567 324.027 94.9567C333.975 94.9567 343.08 101.536 353 101.536" stroke="#797979" stroke-width="2" stroke-linecap="round" stroke-linejoin="round" stroke-dasharray="2.5 10"/>
<path d="M398.094 93.5429H395.346C394.529 90.3466 392.843 87.4458 390.478 85.1703C388.114 82.8947 385.165 81.3355 381.968 80.67C378.771 80.0044 375.453 80.2592 372.392 81.4052C369.331 82.5513 366.649 84.5428 364.651 87.1533C362.653 89.7639 361.419 92.8888 361.089 96.1731C360.76 99.4574 361.348 102.769 362.786 105.733C364.225 108.696 366.457 111.191 369.228 112.936C371.999 114.681 375.199 115.604 378.463 115.602H398.094C400.986 115.602 403.76 114.44 405.806 112.371C407.851 110.303 409 107.498 409 104.572C409 101.647 407.851 98.8418 405.806 96.7733C403.76 94.7049 400.986 93.5429 398.094 93.5429Z" stroke="#797979" stroke-width="2.8" stroke-linecap="round" stroke-linejoin="round"/>
<rect x="1" y="1.30762" width="463" height="127.179" rx="31" stroke="#B5B5B5" stroke-width="2"/>
<defs>
<filter id="filter0_d_1648_9781" x="168.5" y="15.3076" width="112" height="40" filterUnits="userSpaceOnUse" color-interpolation-filters="sRGB">
<feFlood flood-opacity="0" result="BackgroundImageFix"/>
<feColorMatrix in="SourceAlpha" type="matrix" values="0 0 0 0 0 0 0 0 0 0 0 0 0 0 0 0 0 0 127 0" result="hardAlpha"/>
<feOffset dy="1"/>
<feGaussianBlur stdDeviation="1"/>
<feColorMatrix type="matrix" values="0 0 0 0 0.0627451 0 0 0 0 0.0941176 0 0 0 0 0.156863 0 0 0 0.05 0"/>
<feBlend mode="normal" in2="BackgroundImageFix" result="effect1_dropShadow_1648_9781"/>
<feBlend mode="normal" in="SourceGraphic" in2="effect1_dropShadow_1648_9781" result="shape"/>
</filter>
<linearGradient id="paint0_linear_1648_9781" x1="170.5" y1="16.3076" x2="259.735" y2="78.9498" gradientUnits="userSpaceOnUse">
<stop stop-color="#00CC99"/>
<stop offset="1" stop-color="#745EFE"/>
</linearGradient>
<clipPath id="clip0_1648_9781">
<rect width="18" height="18" fill="white" transform="translate(184.5 25.3076)"/>
</clipPath>
</defs>
</svg>
