<svg width="465" height="126" viewBox="0 0 465 126" fill="none" xmlns="http://www.w3.org/2000/svg">
<rect x="1" y="1" width="463" height="123.071" rx="31" fill="#F9F9FF"/>
<path fill-rule="evenodd" clip-rule="evenodd" d="M52 30C54.2091 30 56 28.2091 56 26C56 23.7909 54.2091 22 52 22C49.7909 22 48 23.7909 48 26C48 28.2091 49.7909 30 52 30Z" fill="#FF6058" stroke="#E0443D" stroke-width="0.5"/>
<path fill-rule="evenodd" clip-rule="evenodd" d="M65.333 30C67.5421 30 69.333 28.2091 69.333 26C69.333 23.7909 67.5421 22 65.333 22C63.1239 22 61.333 23.7909 61.333 26C61.333 28.2091 63.1239 30 65.333 30Z" fill="#FFBD2E" stroke="#DFA115" stroke-width="0.5"/>
<path fill-rule="evenodd" clip-rule="evenodd" d="M78.667 30C80.8761 30 82.667 28.2091 82.667 26C82.667 23.7909 80.8761 22 78.667 22C76.4579 22 74.667 23.7909 74.667 26C74.667 28.2091 76.4579 30 78.667 30Z" fill="#29C940" stroke="#26AF36" stroke-width="0.5"/>
<path d="M176.296 30H174.665L178.329 19.8182H180.104L183.768 30H182.137L179.259 21.6676H179.179L176.296 30ZM176.569 26.0128H181.859V27.3054H176.569V26.0128ZM185.119 32.8636V22.3636H186.571V23.6016H186.695C186.781 23.4425 186.905 23.2585 187.068 23.0497C187.23 22.8409 187.456 22.6586 187.744 22.5028C188.032 22.3438 188.414 22.2642 188.887 22.2642C189.504 22.2642 190.054 22.42 190.538 22.7315C191.022 23.0431 191.401 23.4922 191.677 24.0788C191.955 24.6655 192.094 25.3714 192.094 26.1967C192.094 27.022 191.957 27.7296 191.682 28.3196C191.406 28.9062 191.029 29.3587 190.548 29.6768C190.067 29.9917 189.519 30.1491 188.902 30.1491C188.438 30.1491 188.059 30.0713 187.764 29.9155C187.472 29.7597 187.244 29.5774 187.078 29.3686C186.912 29.1598 186.785 28.9742 186.695 28.8118H186.606V32.8636H185.119ZM186.576 26.1818C186.576 26.7187 186.654 27.1894 186.809 27.5938C186.965 27.9981 187.191 28.3146 187.486 28.5433C187.78 28.7687 188.142 28.8814 188.569 28.8814C189.013 28.8814 189.385 28.7637 189.683 28.5284C189.981 28.2898 190.207 27.9666 190.359 27.5589C190.515 27.1513 190.593 26.6922 190.593 26.1818C190.593 25.678 190.517 25.2256 190.364 24.8246C190.215 24.4235 189.99 24.107 189.688 23.875C189.39 23.643 189.017 23.527 188.569 23.527C188.138 23.527 187.774 23.638 187.476 23.8601C187.181 24.0821 186.957 24.392 186.804 24.7898C186.652 25.1875 186.576 25.6515 186.576 26.1818ZM193.76 32.8636V22.3636H195.211V23.6016H195.336C195.422 23.4425 195.546 23.2585 195.709 23.0497C195.871 22.8409 196.096 22.6586 196.385 22.5028C196.673 22.3438 197.054 22.2642 197.528 22.2642C198.145 22.2642 198.695 22.42 199.179 22.7315C199.663 23.0431 200.042 23.4922 200.317 24.0788C200.596 24.6655 200.735 25.3714 200.735 26.1967C200.735 27.022 200.597 27.7296 200.322 28.3196C200.047 28.9062 199.669 29.3587 199.189 29.6768C198.708 29.9917 198.16 30.1491 197.543 30.1491C197.079 30.1491 196.7 30.0713 196.405 29.9155C196.113 29.7597 195.884 29.5774 195.718 29.3686C195.553 29.1598 195.425 28.9742 195.336 28.8118H195.246V32.8636H193.76ZM195.216 26.1818C195.216 26.7187 195.294 27.1894 195.45 27.5938C195.606 27.9981 195.831 28.3146 196.126 28.5433C196.421 28.7687 196.782 28.8814 197.21 28.8814C197.654 28.8814 198.025 28.7637 198.324 28.5284C198.622 28.2898 198.847 27.9666 199 27.5589C199.155 27.1513 199.233 26.6922 199.233 26.1818C199.233 25.678 199.157 25.2256 199.005 24.8246C198.856 24.4235 198.63 24.107 198.329 23.875C198.03 23.643 197.657 23.527 197.21 23.527C196.779 23.527 196.414 23.638 196.116 23.8601C195.821 24.0821 195.597 24.392 195.445 24.7898C195.293 25.1875 195.216 25.6515 195.216 26.1818ZM203.38 30.0945C203.108 30.0945 202.874 29.9983 202.679 29.8061C202.483 29.6106 202.385 29.3752 202.385 29.1001C202.385 28.8284 202.483 28.5964 202.679 28.4041C202.874 28.2086 203.108 28.1108 203.38 28.1108C203.651 28.1108 203.885 28.2086 204.081 28.4041C204.276 28.5964 204.374 28.8284 204.374 29.1001C204.374 29.2824 204.328 29.4498 204.235 29.6023C204.145 29.7514 204.026 29.8707 203.877 29.9602C203.728 30.0497 203.562 30.0945 203.38 30.0945ZM207.538 22.3636L209.224 25.3366L210.924 22.3636H212.55L210.168 26.1818L212.57 30H210.944L209.224 27.1463L207.509 30H205.878L208.254 26.1818L205.908 22.3636H207.538ZM215.016 32.8636C214.794 32.8636 214.591 32.8454 214.409 32.8089C214.227 32.7758 214.091 32.7393 214.001 32.6996L214.359 31.4815C214.631 31.5545 214.873 31.5859 215.085 31.576C215.297 31.5661 215.485 31.4865 215.647 31.3374C215.813 31.1882 215.959 30.9446 216.085 30.6065L216.269 30.0994L213.475 22.3636H215.065L216.999 28.2898H217.079L219.013 22.3636H220.609L217.462 31.0192C217.316 31.4169 217.13 31.7533 216.905 32.0284C216.68 32.3068 216.411 32.5156 216.1 32.6548C215.788 32.794 215.427 32.8636 215.016 32.8636ZM221.847 30V28.9808L225.983 23.7259V23.6562H221.981V22.3636H227.837V23.4474L223.86 28.6378V28.7074H227.977V30H221.847Z" fill="#86869A"/>
<rect x="48" y="73" width="57" height="11.365" fill="url(#paint0_linear_1379_5385)"/>
<path fill-rule="evenodd" clip-rule="evenodd" d="M104 84H78H77H49H48V85V96V97H49H77H78H104H105V96V85V84H104ZM78 96H104V85H78V96ZM49 85H77V96H49V85Z" fill="url(#paint1_linear_1379_5385)"/>
<rect x="184" y="55" width="57" height="11.365" fill="url(#paint2_linear_1379_5385)"/>
<path fill-rule="evenodd" clip-rule="evenodd" d="M240 66H214H213H185H184V67V78V79H185H213H214H240H241V78V67V66H240ZM214 78H240V67H214V78ZM185 67H213V78H185V67Z" fill="url(#paint3_linear_1379_5385)"/>
<rect x="255" y="97" width="57" height="11.365" fill="url(#paint4_linear_1379_5385)"/>
<path fill-rule="evenodd" clip-rule="evenodd" d="M311 108H285H284H256H255V109V120V121H256H284H285H311H312V120V109V108H311ZM285 120H311V109H285V120ZM256 109H284V120H256V109Z" fill="url(#paint5_linear_1379_5385)"/>
<rect x="385" y="73" width="57" height="11.365" fill="url(#paint6_linear_1379_5385)"/>
<path fill-rule="evenodd" clip-rule="evenodd" d="M441 84H415H414H386H385V85V96V97H386H414H415H441H442V96V85V84H441ZM415 96H441V85H415V96ZM386 85H414V96H386V85Z" fill="url(#paint7_linear_1379_5385)"/>
<path d="M111 86H149V66.5H178M149 88.5V109.5H248" stroke="#86869A" stroke-linecap="round" stroke-linejoin="round" stroke-dasharray="2.5 2.5"/>
<path d="M379 87.5L342.5 87.5M342.5 87.5L342.5 109.5L316 109.5M342.5 87.5L342.5 66.5L245.5 66.5" stroke="#86869A" stroke-linecap="round" stroke-linejoin="round" stroke-dasharray="2.5 2.5"/>
<rect x="1" y="1" width="463" height="123.071" rx="31" stroke="#B5B5B5" stroke-width="2"/>
<defs>
<linearGradient id="paint0_linear_1379_5385" x1="48" y1="73" x2="77.5735" y2="107.707" gradientUnits="userSpaceOnUse">
<stop stop-color="#00CC99"/>
<stop offset="1" stop-color="#745EFE"/>
</linearGradient>
<linearGradient id="paint1_linear_1379_5385" x1="48" y1="84" x2="82.251" y2="119.141" gradientUnits="userSpaceOnUse">
<stop stop-color="#00CC99"/>
<stop offset="1" stop-color="#745EFE"/>
</linearGradient>
<linearGradient id="paint2_linear_1379_5385" x1="184" y1="55" x2="213.573" y2="89.7069" gradientUnits="userSpaceOnUse">
<stop stop-color="#00CC99"/>
<stop offset="0.0001" stop-color="#FF715B"/>
<stop offset="1" stop-color="#745EFE"/>
</linearGradient>
<linearGradient id="paint3_linear_1379_5385" x1="184" y1="66" x2="218.251" y2="101.141" gradientUnits="userSpaceOnUse">
<stop stop-color="#00CC99"/>
<stop offset="0.0001" stop-color="#FF715B"/>
<stop offset="1" stop-color="#745EFE"/>
</linearGradient>
<linearGradient id="paint4_linear_1379_5385" x1="255" y1="97" x2="284.573" y2="131.707" gradientUnits="userSpaceOnUse">
<stop stop-color="#00CC99"/>
<stop offset="0.0001" stop-color="#FF715B"/>
<stop offset="1" stop-color="#745EFE"/>
</linearGradient>
<linearGradient id="paint5_linear_1379_5385" x1="255" y1="108" x2="289.251" y2="143.141" gradientUnits="userSpaceOnUse">
<stop stop-color="#00CC99"/>
<stop offset="0.0001" stop-color="#FF715B"/>
<stop offset="1" stop-color="#745EFE"/>
</linearGradient>
<linearGradient id="paint6_linear_1379_5385" x1="385" y1="73" x2="414.573" y2="107.707" gradientUnits="userSpaceOnUse">
<stop stop-color="#00CC99"/>
<stop offset="1" stop-color="#FF715B"/>
</linearGradient>
<linearGradient id="paint7_linear_1379_5385" x1="385" y1="84" x2="419.251" y2="119.141" gradientUnits="userSpaceOnUse">
<stop stop-color="#00CC99"/>
<stop offset="1" stop-color="#FF715B"/>
</linearGradient>
</defs>
</svg>
