<svg width="188" height="42" viewBox="0 0 188 42" fill="none" xmlns="http://www.w3.org/2000/svg">
<g clip-path="url(#clip0_578_582)">
<path d="M47.437 18.6077C51.3715 18.6077 53.0432 20.7657 53.0432 25.8052C53.0432 30.8448 51.3715 33.0092 47.437 33.0092C44.7991 33.0092 43.2609 31.8438 42.6252 29.2375L42.0532 32.7595H39.5742V13.376H42.7079V22.2065C43.3435 19.7411 44.8817 18.6333 47.437 18.6333V18.6077ZM49.9096 25.8052C49.9096 22.3986 48.8417 20.9322 46.3119 20.9322C43.7821 20.9322 42.7079 22.3986 42.7079 25.8052C42.7079 29.2119 43.7821 30.6783 46.3119 30.6783C48.8417 30.6783 49.9096 29.2119 49.9096 25.8052Z" fill="#F8F7FF"/>
<path d="M61.9803 21.2908C59.5013 21.2908 58.8021 22.4306 58.8021 25.8373V32.7595H55.6558V18.9087H58.1284L58.6814 22.2641C59.1199 19.7987 60.1942 18.6333 62.3108 18.6333H63.7346V21.2908H61.9803Z" fill="#F8F7FF"/>
<path d="M79.3199 25.8373C79.3199 30.8769 77.2032 33.0349 72.3279 33.0349C67.4526 33.0349 65.2915 30.8961 65.2915 25.8373C65.2915 20.7785 67.3764 18.6333 72.2834 18.6333C77.1905 18.6333 79.3199 20.7977 79.3199 25.8373ZM72.3279 30.5951C75.0738 30.5951 76.1989 29.1863 76.1989 25.8373C76.1989 22.4882 75.0738 21.073 72.3279 21.073C69.582 21.073 68.4188 22.4562 68.4188 25.8373C68.4188 29.2184 69.5629 30.5951 72.3152 30.5951H72.3279Z" fill="#F8F7FF"/>
<path d="M85.0917 25.2289L90.5899 18.9086H94.3019L88.3652 25.5555L94.8486 32.7595H91.1365L85.0917 25.8885V32.7595H81.958V13.376H85.0917V25.2289Z" fill="#F8F7FF"/>
<path d="M98.0902 27.1115C98.3381 29.769 99.4377 30.9537 101.751 30.9537C103.588 30.9537 104.497 30.3133 104.93 28.5716H107.904C107.269 31.7029 105.4 33.054 101.72 33.054C96.9905 33.054 94.9819 30.896 94.9819 25.8564C94.9819 20.8169 96.9905 18.6525 101.72 18.6525C106.449 18.6525 108.514 20.8489 108.514 26.0293V27.1115H98.0902ZM98.0393 25.1905H105.336C105.336 21.9887 104.262 20.708 101.732 20.708C99.3042 20.74 98.1728 22.0656 98.0393 25.1969V25.1905Z" fill="#F8F7FF"/>
<path d="M113.6 18.9087L114.153 22.2065C114.699 19.7411 116.104 18.6333 118.551 18.6333C122.015 18.6333 123.496 20.6312 123.496 25.2802V32.7595H120.363V25.9205C120.363 23.7049 120.363 20.9578 117.426 20.9578C115.17 20.9578 114.248 22.2385 114.248 25.2802V32.7595H111.121V18.9087H113.6Z" fill="#F8F7FF"/>
<path d="M138.192 32.7275H135.72L135.084 30.0444C134.397 32.4778 132.637 33.0093 130.463 33.0093C127.495 33.0093 125.791 31.9014 125.791 28.7125C125.791 24.2812 129.478 24.0059 132.859 24.0059H135.059V23.3655C135.059 21.3484 134.207 20.516 132.198 20.516C130.19 20.516 129.338 21.2652 129.338 23.0774H126.369C126.369 19.9781 128.13 18.6461 132.281 18.6461C136.431 18.6461 138.192 20.1702 138.192 23.6857V32.7595V32.7275ZM132.313 25.8629C129.948 25.8629 128.931 26.6634 128.931 28.546C128.931 30.2365 129.726 30.8449 131.709 30.8449C134.595 30.8449 135.059 29.1287 135.059 26.6954V25.8629H132.313Z" fill="#44D1A8"/>
<path d="M147.701 30.3198H149.71V32.7595H146.576C143.938 32.7595 142.508 31.2035 142.508 28.7445V21.0154H140.296V18.9087H142.495V15.5276H145.629V18.9023H149.697V21.009H145.629V28.4115C145.642 29.5449 146.303 30.3198 147.701 30.3198Z" fill="#44D1A8"/>
<path d="M165.264 25.8373C165.264 30.8769 163.153 33.0349 158.272 33.0349C153.39 33.0349 151.28 30.8769 151.28 25.8373C151.28 20.7977 153.371 18.6333 158.272 18.6333C163.172 18.6333 165.264 20.7977 165.264 25.8373ZM158.272 30.5951C161.018 30.5951 162.149 29.1863 162.149 25.8373C162.149 22.4882 161.018 21.073 158.272 21.073C155.526 21.073 154.369 22.4562 154.369 25.8373C154.369 29.2184 155.507 30.5951 158.259 30.5951H158.272Z" fill="#44D1A8"/>
<path d="M176.45 25.2802C176.45 22.2321 175.713 20.9898 173.908 20.9898C171.931 20.9898 171.105 22.2705 171.105 25.3058V32.8171H167.971V18.9407H170.444L171.048 21.9311C171.626 19.6579 172.955 18.6333 175.313 18.6333C177.455 18.6333 178.745 19.7411 179.266 22.2321C179.819 19.7411 181.173 18.6333 183.614 18.6333C186.582 18.6333 188.013 20.6312 188.013 25.2802V32.7595H184.879V25.2802C184.879 22.2641 184.11 20.9578 182.336 20.9578C180.36 20.9578 179.533 22.2385 179.533 25.2802V32.7595H176.4V25.2802H176.45Z" fill="#44D1A8"/>
</g>
<g clip-path="url(#clip1_578_582)">
<path d="M25.6626 24.0163C24.9647 19.297 21.8729 16.4857 17.2508 16.3741C15.979 16.3475 14.7175 16.3741 13.2543 16.3741C13.8127 12.9728 14.3297 9.85323 14.8674 6.57421C13.1044 6.57421 11.4913 6.65393 9.87824 6.57421C8.58054 6.47855 8.19278 6.96217 7.97564 8.26953C6.46596 17.5061 4.87356 26.7213 3.20361 36.3086C7.25699 36.4627 11.0881 36.6647 14.9346 36.7444C16.9209 36.8089 18.8869 36.3165 20.6218 35.3201C20.1713 34.6616 19.9278 33.8771 19.9238 33.0721C19.8938 32.3771 20.0302 31.6852 20.321 31.057C20.6118 30.4288 21.0481 29.8835 21.5917 29.4691C22.1352 29.0546 22.7694 28.7836 23.4387 28.6798C24.1079 28.576 24.7916 28.6425 25.43 28.8737C25.8347 27.2887 25.9139 25.6344 25.6626 24.0163ZM14.9863 30.7231C14.4954 30.7139 14.0114 30.6029 13.5632 30.3967C13.1151 30.1905 12.7121 29.8933 12.3785 29.5231C12.0448 29.1528 11.7874 28.7171 11.6216 28.242C11.4558 27.767 11.3851 27.2624 11.4138 26.7585C11.3985 25.6354 11.8163 24.5518 12.5757 23.7442C13.3352 22.9367 14.3747 22.4709 15.4671 22.4485C15.9438 22.4325 16.4185 22.5182 16.8612 22.7003C17.304 22.8824 17.7052 23.157 18.0395 23.5066C18.3737 23.8562 18.6339 24.2733 18.8033 24.7315C18.9728 25.1897 19.048 25.679 19.0242 26.1686C19.0449 28.6505 17.2043 30.7231 14.9863 30.7231Z" fill="#F8F7FF"/>
<path d="M27.5497 32.2644C27.5756 34.8632 25.8591 36.7605 23.5119 36.7233C22.9553 36.7401 22.4029 36.6195 21.9009 36.3717C21.399 36.1239 20.9621 35.756 20.627 35.299C21.8095 34.6127 22.8449 33.6879 23.6711 32.5802C24.4974 31.4724 25.0974 30.2045 25.4352 28.8525C26.738 29.3468 27.5394 30.5691 27.5497 32.2644Z" fill="#44D1A8"/>
</g>
<defs>
<clipPath id="clip0_578_582">
<rect width="185" height="30.1094" fill="white" transform="translate(3 6.56262)"/>
</clipPath>
<clipPath id="clip1_578_582">
<path d="M0.394531 6.5625H30.3593V36.75H0.394531V6.5625Z" fill="white"/>
</clipPath>
</defs>
</svg>
